# xmcd
#
# Track frame offsets: 
#        182
#        15102
#        24505
#        35337
#        48125
#        63477
#        77870
#        98012
#        107205
#        120082
#        130152
#        143540
#        151622
#
# Disc length: 2159 seconds
#
# Revision: 5
# Processed by: cddbd v1.5.2PL0 Copyright (c) Steve Scherf et al.
# Submitted via: ExactAudioCopyFreeDBPlugin 1.0
#
DISCID=8a086d0d
DTITLE=Shakin' Dudi - Złota płyta
DYEAR=1998
DGENRE=Blues
TTITLE0=Stany lękowe
TTITLE1=O ogień bój
TTITLE2=Pornografia
TTITLE3=Otwórz oczka
TTITLE4=Zastanów się co robisz
TTITLE5=To ty słodka
TTITLE6=Och, Ziuta
TTITLE7=Za dziesięć trzynasta
TTITLE8=Au sza la la la
TTITLE9=Super gwiazda
TTITLE10=Kaptur
TTITLE11=Opakowanie
TTITLE12=Codzienny aerobic
EXTD=
EXTT0=
EXTT1=
EXTT2=
EXTT3=
EXTT4=
EXTT5=
EXTT6=
EXTT7=
EXTT8=
EXTT9=
EXTT10=
EXTT11=
EXTT12=
PLAYORDER=
